<svg xmlns="http://www.w3.org/2000/svg" viewBox="0 0 150 32" role="img" aria-labelledby="title">
  <title id="title">AXTL</title>
  <g transform="translate(0 4) scale(0.06)">
    <path fill="#0b0c16" fill-rule="evenodd" d="M 117.561 72.603 C 99.483 76.976, 82.312 94.545, 78.081 113 C 76.983 117.786, 76.561 179.692, 77.607 182.418 C 78.136 183.797, 81.143 184, 100.985 184 C 118.063 184, 124.016 183.685, 124.800 182.741 C 125.423 181.991, 125.976 173.416, 126.172 161.491 C 126.494 141.839, 126.548 141.407, 129.316 136 C 130.865 132.975, 133.904 128.985, 136.068 127.132 C 142.611 121.533, 146.250 120.777, 167.500 120.595 C 177.950 120.506, 187.063 120.084, 187.750 119.657 C 189.503 118.570, 189.550 73.950, 187.800 72.200 C 185.943 70.343, 125.471 70.690, 117.561 72.603 M 221.200 72.200 C 219.441 73.959, 219.489 119.928, 221.250 120.177 C 221.938 120.275, 230.375 120.399, 240 120.454 C 250.632 120.515, 259.119 121.036, 261.626 121.782 C 268.021 123.686, 275.464 130.206, 278.631 136.678 C 281.267 142.065, 281.387 143.017, 281.933 162.884 L 282.500 183.500 305.929 183.769 C 324.006 183.976, 329.543 183.748, 330.164 182.769 C 331.212 181.118, 331.157 126.611, 330.099 117.493 C 328.206 101.190, 316.420 84.975, 300.746 77.110 C 296.211 74.834, 290.076 72.528, 287.114 71.986 C 279.035 70.507, 222.710 70.690, 221.200 72.200 M 192.855 160.917 C 186.931 162.830, 177.753 168.545, 173.912 172.711 C 171.667 175.147, 168.405 180.147, 166.665 183.820 C 163.734 190.007, 163.500 191.280, 163.500 201.052 C 163.500 211.244, 163.629 211.865, 167.278 219.249 C 171.647 228.088, 178.118 234.296, 187.583 238.729 C 192.812 241.178, 194.663 241.500, 203.500 241.500 C 212.666 241.500, 214.061 241.234, 220.223 238.315 C 238.633 229.594, 248.486 209.783, 243.527 191.461 C 240.237 179.307, 231.996 169.361, 220.322 163.454 C 215.359 160.943, 213.310 160.521, 205.045 160.308 C 199.795 160.173, 194.310 160.447, 192.855 160.917 M 78.200 218.200 C 76.685 219.715, 76.509 277.064, 77.994 285.114 C 79.615 293.902, 86.201 306.041, 93.080 312.920 C 100.830 320.670, 112.328 326.507, 123 328.109 C 133.925 329.749, 186.919 328.736, 188.105 326.864 C 189.153 325.210, 189.273 283.957, 188.235 282.395 C 187.765 281.688, 180.114 281.036, 167.014 280.587 C 150.625 280.025, 145.726 279.528, 142.514 278.101 C 136.599 275.471, 132.244 271.389, 129.201 265.620 C 126.557 260.609, 126.494 260.065, 126.198 240 C 125.939 222.412, 125.663 219.322, 124.257 218.250 C 121.973 216.508, 79.937 216.463, 78.200 218.200 M 283.200 218.200 C 282.379 219.021, 281.994 223.991, 281.980 233.950 C 281.958 250.152, 280.771 260.608, 278.443 265.111 C 276.114 269.614, 269.327 275.968, 264.622 278.049 C 261.138 279.590, 257.211 279.955, 240.950 280.249 C 230.228 280.442, 220.903 280.942, 220.227 281.359 C 218.279 282.564, 218.491 326.332, 220.453 327.961 C 221.543 328.866, 230.078 329.067, 254.703 328.767 C 285.421 328.393, 287.875 328.229, 293.420 326.179 C 310.010 320.047, 321.679 308.507, 327.806 292.179 C 330.249 285.667, 330.323 284.686, 330.771 252.937 C 331.189 223.346, 331.076 220.219, 329.544 218.687 C 328.065 217.208, 325.178 217, 306.129 217 C 290.562 217, 284.060 217.340, 283.200 218.200"/>
  </g>
  <text x="32" y="24" fill="#0b0c16" font-family="Inter, ui-sans-serif, system-ui, -apple-system, BlinkMacSystemFont, Segoe UI, sans-serif" font-size="22" font-weight="800" letter-spacing="0">AXTL</text>
</svg>
